<?xml version="1.0" encoding="utf-8"?>
<!-- Generator: Adobe Illustrator 24.0.0, SVG Export Plug-In . SVG Version: 6.00 Build 0)  -->
<svg version="1.1" id="Layer_1" xmlns="http://www.w3.org/2000/svg" xmlns:xlink="http://www.w3.org/1999/xlink" x="0px" y="0px"
	 viewBox="0 0 543.3 73.4" style="enable-background:new 0 0 543.3 73.4;" xml:space="preserve">
<style type="text/css">
	.st0{fill:#004E9A;}
	.st1{fill:#00AEEF;}
	.st2{fill:#004E99;}
</style>
<g>
	<g>
		<polygon class="st0" points="44,38.3 31,15.8 18,38.3 		"/>
		<polygon class="st0" points="32.8,66.2 60.1,66.2 46.5,42.6 		"/>
		<polygon class="st0" points="15.6,42.6 1.9,66.2 29.2,66.2 		"/>
	</g>
	<path class="st1" d="M33,60l9-15.7c0.9-1.5-0.2-3.4-2-3.4H21.9c-1.7,0-2.8,1.9-2,3.4L29,60C29.9,61.5,32.1,61.5,33,60z"/>
</g>
<g>
	<polygon class="st0" points="81.3,66.1 81.3,13.8 108.9,13.8 108.9,21.5 89.1,21.5 89.1,66.1 	"/>
	<polygon class="st0" points="146.8,66.1 146.8,30.7 116.3,66.1 113.1,66.1 113.1,13.8 120.9,13.8 120.9,49.8 151.6,13.8 
		154.8,13.8 154.8,66.1 	"/>
	<path class="st0" d="M203.4,73.4V66h-36.8v7.4h-7.8V58.6h4.5l19.4-44.7h3.6l20.5,44.7h4.4v14.9L203.4,73.4L203.4,73.4z M197.8,58.6
		L184.6,29l-12.5,29.5L197.8,58.6L197.8,58.6z"/>
	<path class="st0" d="M215.3,66.1V13.8h11.3c5.8,0,9.7,0.3,11.8,0.8c3.1,0.8,5.7,2.4,7.7,4.8s3,5.5,3,9.1s-1,6.7-2.9,9.1
		s-4.6,4-8,4.8c-2.4,0.6-6.6,0.8-12.9,0.8h-2.1v22.9H215.3z M230,35.5c3.2,0,5.5-0.3,6.9-0.8c1.3-0.5,2.3-1.3,3-2.4
		c0.7-1.1,1.1-2.4,1.1-3.8s-0.4-2.6-1.1-3.7c-0.7-1.1-1.7-1.9-2.9-2.4c-0.9-0.3-2.8-0.8-6.7-0.8H223v13.9H230z"/>
	<path class="st0" d="M281.3,67.3c-7.7,0-14.3-2.7-19.6-7.9c-5.3-5.3-8-11.7-8-19.2c0-5,1.2-9.6,3.6-13.9c2.4-4.3,5.7-7.6,9.9-10
		c4.2-2.4,8.7-3.6,13.6-3.6c7.8,0,14.5,2.7,19.8,7.9s8,11.8,8,19.4s-2.7,14.1-8,19.4C295.4,64.6,288.9,67.3,281.3,67.3z M281.1,20.3
		c-3.4,0-6.6,0.9-9.7,2.7c-3,1.8-5.4,4.2-7.1,7.2s-2.6,6.4-2.6,10.1c0,5.5,1.9,10,5.7,13.8c3.8,3.8,8.3,5.6,13.7,5.6
		c3.6,0,6.9-0.9,9.9-2.6c3-1.7,5.4-4.1,7.1-7.1s2.6-6.4,2.6-10s-0.9-7-2.5-9.9c-1.7-2.9-4.1-5.3-7.2-7.1
		C287.9,21.2,284.5,20.3,281.1,20.3z"/>
	<path class="st0" d="M341.5,67.3c-9,0-16.3-3.1-21.5-9.1c-4.4-5.1-6.6-11.3-6.6-18.5c0-7.6,2.7-14.1,8-19.3s12.1-7.8,20-7.8
		c4.8,0,9.2,1,13.1,2.9s7.2,4.6,9.7,8.1l0.8,1.1l-6.2,4.7l-0.9-1.1c-2-2.6-4.4-4.6-7.2-5.9c-2.8-1.3-5.9-2-9.3-2
		c-3.7,0-7.1,0.9-10.2,2.6c-3.1,1.8-5.5,4.1-7.3,7.1c-1.7,2.9-2.6,6.3-2.6,10c0,5.7,1.9,10.2,5.8,14s8.7,5.6,14.6,5.6
		c6.5,0,11.8-2.5,16.2-7.6l0.9-1l6.2,4.7l-0.9,1.2c-2.6,3.3-5.9,5.9-9.7,7.7C350.6,66.4,346.3,67.3,341.5,67.3z"/>
	<polygon class="st0" points="377.6,66.1 377.6,21.5 366.6,21.5 366.6,13.8 396.5,13.8 396.5,21.5 385.5,21.5 385.5,66.1 	"/>
	<path class="st0" d="M400.7,66.1V13.8H412c5.8,0,9.7,0.3,11.8,0.8c3.1,0.8,5.7,2.4,7.7,4.8s3,5.5,3,9.1s-1,6.7-2.9,9.1
		s-4.6,4-8,4.8c-2.4,0.6-6.6,0.8-12.9,0.8h-2.1v22.9H400.7z M415.5,35.5c3.2,0,5.5-0.3,6.9-0.8c1.3-0.5,2.3-1.3,3-2.4
		c0.7-1.1,1.1-2.4,1.1-3.8s-0.4-2.6-1.1-3.7s-1.7-1.9-2.9-2.4c-0.9-0.3-2.8-0.8-6.7-0.8h-7.3v13.9H415.5z"/>
	<path class="st0" d="M466.8,67.3c-7.7,0-14.3-2.7-19.5-7.9c-5.3-5.3-8-11.7-8-19.2c0-5,1.2-9.6,3.6-13.9s5.8-7.6,9.9-10.1
		c4.2-2.4,8.7-3.6,13.6-3.6c7.8,0,14.5,2.7,19.8,7.9s8,11.8,8,19.4s-2.7,14.1-8,19.4C480.9,64.6,474.4,67.3,466.8,67.3z M466.6,20.3
		c-3.4,0-6.6,0.9-9.7,2.7c-3,1.8-5.4,4.2-7.1,7.2s-2.6,6.4-2.6,10.1c0,5.5,1.9,10,5.7,13.8c3.8,3.8,8.3,5.6,13.7,5.6
		c3.6,0,6.9-0.9,9.9-2.6c3-1.7,5.4-4.1,7.1-7.1s2.5-6.4,2.5-10s-0.9-7-2.5-9.9c-1.7-2.9-4.1-5.3-7.2-7.1
		C473.3,21.2,470,20.3,466.6,20.3z"/>
	<path class="st0" d="M534.8,66.1V30.7l-30.4,35.4h-3.2V13.8h7.8v36l30.6-36h3.2V66L534.8,66.1L534.8,66.1z M522.1,12
		c-3.6,0-6.5-0.7-8.8-2.2c-2.4-1.5-3.9-3.5-4.6-5.9L508.2,2h7.1l0.4,0.7c0.6,0.9,1.4,1.6,2.4,2.1c1.1,0.5,2.4,0.7,4,0.7
		s2.8-0.2,3.7-0.6s1.7-1.2,2.6-2.3l0.4-0.6h6.9l-0.4,1.8c-0.6,2.4-2.1,4.4-4.4,5.9C528.7,11.2,525.7,12,522.1,12z"/>
</g>
<path class="st2" d="M6.1,55.8C2.8,51.5,0.8,46,0.4,40.4l-0.1-1.1l0-1.1c0-0.7,0-1.4,0.1-2.1c0.1-1.4,0.3-2.8,0.6-4.2L1,31.5L1.2,31
	l0.3-1c0.2-0.7,0.4-1.4,0.7-2c0.5-1.3,1.1-2.6,1.7-3.9c0.7-1.3,1.4-2.5,2.2-3.6c0.8-1.2,1.7-2.3,2.7-3.3c1-1,2-2,3.2-2.9l0.4-0.3
	l0.4-0.3c0.3-0.2,0.6-0.4,0.9-0.6c0.6-0.4,1.2-0.8,1.8-1.2c2.5-1.5,5.2-2.6,7.9-3.3c2.8-0.7,5.7-1.1,8.6-1l1.1,0l1.1,0.1l0.5,0
	l0.5,0.1l1.1,0.1C37,7.9,37.7,8,38.4,8.2c0.4,0.1,0.7,0.2,1.1,0.3l1,0.3c1.4,0.4,2.7,0.9,4,1.5c0.7,0.3,1.3,0.6,1.9,1
	c0.3,0.2,0.6,0.4,0.9,0.5c0.3,0.2,0.6,0.4,0.9,0.6c4.8,3.1,8.8,7.6,11.2,12.7c0.3,0.6,0.6,1.3,0.9,2l0.4,1l0.2,0.5l0.2,0.5
	c0.4,1.3,0.8,2.7,1,4.1c0.4,2.8,0.6,5.6,0.2,8.4c-0.3,2.8-1,5.5-2.1,8.1c-0.5,1.3-1.2,2.5-1.9,3.7c-0.7,1.2-1.5,2.3-2.4,3.4
	c0.7-1.2,1.4-2.4,1.9-3.6c0.6-1.2,1-2.5,1.4-3.8c0.8-2.6,1.2-5.2,1.3-7.9c0.2-5.3-1.1-10.6-3.5-15.2c-1.2-2.3-2.8-4.4-4.6-6.3
	c-0.9-0.9-1.8-1.8-2.9-2.6c-1-0.8-2.1-1.6-3.2-2.2c-0.3-0.2-0.6-0.3-0.8-0.5c-0.3-0.2-0.6-0.3-0.8-0.5c-0.6-0.3-1.1-0.6-1.7-0.8
	c-1.2-0.5-2.4-1-3.6-1.3c-1.2-0.4-2.5-0.6-3.8-0.8l-1-0.1l-0.5-0.1l-0.5,0l-1-0.1l-1,0c-2.6-0.1-5.2,0.3-7.7,0.9
	c-2.5,0.6-4.9,1.6-7.2,2.9c-4.5,2.5-8.3,6.3-11,10.8c-0.7,1.1-1.3,2.3-1.8,3.5c-0.3,0.6-0.5,1.2-0.7,1.8c-0.2,0.6-0.4,1.2-0.6,1.9
	c-0.4,1.3-0.6,2.6-0.8,3.9c-0.2,1.3-0.3,2.6-0.3,4C2,45.7,3.4,51.1,6.1,55.8z"/>
</svg>
